<svg width="16" height="16" viewBox="0 0 16 16" fill="none" xmlns="http://www.w3.org/2000/svg">
<rect width="16" height="16" fill="#DBDBDB"/>
<g id="Home page" clip-path="url(#clip0_0_1)">
<rect width="1920" height="2630" transform="translate(-1564 -41)" fill="white"/>
<g id="Rectangle 1" filter="url(#filter0_d_0_1)">
<rect x="-1564" y="-41" width="1920" height="100" fill="white"/>
</g>
<g id="Frame 5">
<rect x="-12" y="-11" width="118" height="39" rx="5" fill="#0099FF"/>
<g id="fluent:chat-28-filled">
<path id="Vector" d="M1.14283 8C1.14283 4.21314 4.21311 1.14285 7.99997 1.14285C11.7868 1.14285 14.8571 4.21314 14.8571 8C14.8571 11.7869 11.7868 14.8571 7.99997 14.8571C6.87661 14.8587 5.77021 14.5832 4.77883 14.0549L2.05311 14.8303C1.93076 14.865 1.80134 14.8665 1.67823 14.8345C1.55512 14.8025 1.4428 14.7382 1.35285 14.6483C1.26291 14.5583 1.19862 14.446 1.16662 14.3229C1.13462 14.1998 1.13607 14.0704 1.17083 13.948L1.94569 11.2223C1.41699 10.2306 1.14122 9.12379 1.14283 8ZM5.42854 6.71428C5.42854 6.95085 5.62054 7.14285 5.85711 7.14285H10.1428C10.2565 7.14285 10.3655 7.0977 10.4459 7.01733C10.5262 6.93695 10.5714 6.82795 10.5714 6.71428C10.5714 6.60062 10.5262 6.49161 10.4459 6.41124C10.3655 6.33086 10.2565 6.28571 10.1428 6.28571H5.85711C5.74345 6.28571 5.63444 6.33086 5.55407 6.41124C5.4737 6.49161 5.42854 6.60062 5.42854 6.71428ZM5.85711 8.85714C5.74345 8.85714 5.63444 8.90229 5.55407 8.98266C5.4737 9.06304 5.42854 9.17205 5.42854 9.28571C5.42854 9.39937 5.4737 9.50838 5.55407 9.58876C5.63444 9.66913 5.74345 9.71428 5.85711 9.71428H8.42854C8.54221 9.71428 8.65122 9.66913 8.73159 9.58876C8.81196 9.50838 8.85711 9.39937 8.85711 9.28571C8.85711 9.17205 8.81196 9.06304 8.73159 8.98266C8.65122 8.90229 8.54221 8.85714 8.42854 8.85714H5.85711Z" fill="white"/>
</g>
</g>
</g>
<defs>
<filter id="filter0_d_0_1" x="-1584" y="-51" width="1960" height="140" filterUnits="userSpaceOnUse" color-interpolation-filters="sRGB">
<feFlood flood-opacity="0" result="BackgroundImageFix"/>
<feColorMatrix in="SourceAlpha" type="matrix" values="0 0 0 0 0 0 0 0 0 0 0 0 0 0 0 0 0 0 127 0" result="hardAlpha"/>
<feOffset dy="10"/>
<feGaussianBlur stdDeviation="10"/>
<feComposite in2="hardAlpha" operator="out"/>
<feColorMatrix type="matrix" values="0 0 0 0 0 0 0 0 0 0 0 0 0 0 0 0 0 0 0.05 0"/>
<feBlend mode="normal" in2="BackgroundImageFix" result="effect1_dropShadow_0_1"/>
<feBlend mode="normal" in="SourceGraphic" in2="effect1_dropShadow_0_1" result="shape"/>
</filter>
<clipPath id="clip0_0_1">
<rect width="1920" height="2630" fill="white" transform="translate(-1564 -41)"/>
</clipPath>
</defs>
</svg>
